<svg fill="none" height="314" viewBox="0 0 1443 314" width="1443" xmlns="http://www.w3.org/2000/svg"><path d="m304.026 93.3693-3.152-7.4915s-5.831-6.1513-2.52-11.1164c3.311-4.9705 17.344-6.1513 20.419 11.9842 0 0 4.963.1593 5.831 4.965.867 4.8113-3.47 7.9639-4.81 11.5124-1.34 3.548-4.337 4.811-4.337 4.811l-5.595.868z" fill="#0c1b3c"/><path d="m338 194.218s-3.311 5.283-4.101 8.123c-.791 2.839-1.499 3.707-.868 4.256.632.555 2.207-2.284 3.311-3.707 1.104-1.422 1.263 3.784 1.263 5.679s-.912 5.284.115 5.361 3.668-4.339 4.612-6.152c.944-1.812.522-13.56.522-13.56z" fill="#e9928b"/><path d="m329.446 299.924-2.366 1.774s-1.774 6.86-.945 9.518h28.023s-2.718-3.905-8.279-5.646c-5.557-1.747-7.215-2.334-8.038-3.872-.829-1.538-8.395-1.774-8.395-1.774z" fill="#ffab40"/><path d="m284.87 298.979 2.009 2.718s2.482 6.031 1.417 9.518h-23.411s.357-3.905 4.255-5.646c3.903-1.746 7.329-3.872 7.329-3.872z" fill="#ffab40"/><path d="m354.158 311.222h-28.023v2.779h28.023z" fill="#fff"/><path d="m288.301 311.222h-23.411v2.779h23.411z" fill="#fff"/><path d="m337.841 301.698h-10.761l-.747-5.026-.785-5.267 11.464-1.653.483 6.92z" fill="#e9928b"/><path d="m288.301 291.646-.708 5.025-.714 5.025h-10.404l.653-5.025.648-5.025z" fill="#e9928b"/><path d="m277.776 291.646h10.525l-.708 5.025h-10.465z" fill="#de6667"/><path d="m337.495 296.672h-11.162l-.785-5.267 11.464-1.653z" fill="#de6667"/><path d="m340.443 294.129h-16.789s-13.007-46.366-14.423-52.995c-1.417-6.618-6.309-21.211-6.309-21.211l-12.611 74.2h-14.808s-.62-35.721 0-47.552c.494-9.447 3.009-39.566 5.568-54.566.647-3.784 1.295-6.602 1.91-7.887 3.075-6.387 40.673 7.332 40.673 7.332s.258 1.456.703 3.982c1.438 8.14 4.842 27.358 7.972 44.515 4.09 22.48 8.114 54.182 8.114 54.182z" fill="#5f6386"/><path d="m302.922 219.928-5.639-19.949s-5.792 11.04-4.139 19.949c1.658 8.908-5.068 12.187-.297 21.683 4.771 9.502-2.097 16.752 2.531 22.689z" fill="#4a4e73"/><path d="m324.356 195.444c-4.441.955-9.904.955-16.526-.885-15.021-4.168-22.96-3.553-26.765-2.548.648-3.784 1.296-6.602 1.911-7.887 3.074-6.387 40.672 7.332 40.672 7.332s.264 1.461.708 3.988z" fill="#4a4e73"/><path d="m266.07 103.221s-.944-4.9045 1.181-7.4364c2.125-2.532 7.192 1.406 7.192 1.406s3.283 3.5314 1.592 6.8484c-1.691 3.323-9.965-.818-9.965-.818z" fill="#e9928b"/><path d="m330.797 143.998c-2.059 11.94-5.436 25.231-5.013 31.141.785 11.04 1.263 15.142 1.894 17.191.626 2.054-9.3 3.784-20.023 0-5.167-1.829-11.733-2.955-17.136-3.636-5.814-.725-10.294-.934-10.294-.934s2.998-15.933 3.942-24.292c.95-8.359-.055-17.976-.055-17.976s-.005.005-.016.016c-.461.357-12.189 9.326-18.223 3.515-.873-.84-1.532-2.01-2.02-3.422-3.959-11.484 3.607-39.22 3.607-39.22l8.988 1.263s-1.263 21.607-.473 21.766c.786.159 9.301-7.568 13.402-10.567 2.295-1.681 6.161-2.669 10.234-3.109 3.196-.335 6.518-.329 9.312-.049 0 0 4.145.093 9.131 1.164 3.975.846 8.477 2.312 11.837 4.828 3.503 2.636 2.701 11.968.906 22.321z" fill="#7dc4be"/><path d="m327.673 192.329c.626 2.054-9.301 3.784-20.023 0-5.167-1.829-11.733-2.955-17.136-3.636 1.982-2.472 5.37-4.976 12.408-7.058 17.262-5.113.785-13.901 10.69-19.657 9.905-5.75 10.745-23.353 10.745-23.353l6.435 5.366c-2.059 11.94-5.436 25.232-5.013 31.141.79 11.045 1.263 15.143 1.894 17.197z" fill="#379690" opacity=".4225"/><path d="m318.042 116.848c-4.37 8.178-16.751 15.329-16.751 15.329-2.135-6.179-1.899-13.528-1.691-16.45 3.196-.335 6.517-.329 9.312-.049 0 .005 4.145.099 9.13 1.17z" fill="#fff"/><path d="m323.89 121.045c2.158-2.4 6.621-.313 12.139 7.728 5.518 8.04 10.245 25.863 11.195 32.014.944 6.152-.472 27.286-3.47 36.431l-8.054-.632s-2.037-30.279-2.35-32.328c-.313-2.048-6.781-18.295-9.46-27.126-2.679-8.832-2.839-12.935 0-16.087z" fill="#7dc4be"/><path d="m315.451 116.864c0 1.187-1.734 3.23-5.99 4.021-4.255.785-9.46-2.285-7.884-4.339.588-.769.95-2.296 1.164-3.911.363-2.697.335-5.629.335-5.629s9.218-8.5959 9.142-4.18c-.083 4.416 3.228 5.207 3.228 5.207-1.093 4.888.005 7.65.005 8.831z" fill="#e9928b"/><path d="m312.223 102.826c-2.46 6.201-6.325 8.771-9.482 9.809.363-2.697.335-5.63.335-5.63s9.224-8.5896 9.147-4.179z" fill="#de6667"/><path d="m278.061 98.186-16.421 21.145c-.225.291-.555.467-.895.511-.341.044-.703-.044-.994-.274-2.427-1.89-2.866-5.388-.983-7.816l13.831-17.8116z" fill="#8fb9cf"/><path d="m278.062 98.1856-16.422 21.1454c-.225.291-.555.467-.895.511-1.126-1.906-1.038-4.389.401-6.239l13.83-17.812z" fill="#7a9db0"/><path d="m285.413 96.6913c-2.415 3.1086-5.034 5.1137-5.852 4.4817-.818-.637.477-3.6689 2.893-6.783 2.416-3.1087 5.035-5.1133 5.853-4.4817s-.478 3.6743-2.894 6.783z" fill="#8fb9cf"/><path d="m278.147 81.9785-8.761 11.2813 10.18 7.9112 8.761-11.2808z" fill="#8fb9cf"/><path d="m282.871 95.6645-5.951-4.6245c-.335-.2581-.396-.736-.132-1.071.258-.335.736-.3954 1.07-.1318l5.952 4.6245c.335.2581.395.736.132 1.071-.258.3295-.741.3899-1.071.1318z" fill="#7a9db0"/><path d="m285.078 92.3364-5.951-4.6245c-.335-.2581-.396-.736-.132-1.071.258-.335.736-.3955 1.071-.1318l5.951 4.6245c.335.2581.395.736.132 1.071-.258.3295-.741.3899-1.071.1318z" fill="#7a9db0"/><path d="m280.231 98.5757-5.952-4.6245c-.335-.2582-.395-.736-.132-1.0711.258-.335.736-.3954 1.071-.1318l5.951 4.6246c.335.2581.396.7359.132 1.071-.258.3295-.741.3899-1.07.1318z" fill="#7a9db0"/><path d="m275.234 88.7779-.011.0165c-.346.4504-.697.8733-1.048 1.2687-.407.4559-.802.8733-1.192 1.2523-1.62 1.5653-3.042 2.3782-3.602 1.9443l-.016.0219-43.632-16.1583 25.969-33.4426 26.442 38.2978-.016.022c.488.3789.219 1.6257-.593 3.2294-.171.3351-.363.6866-.582 1.049-.225.379-.473.769-.747 1.1644-.302.4394-.626.8898-.972 1.3346z" fill="#b2d3e4"/><path d="m275.235 88.7774-.011.0165-35.595-26.7366 4.409-5.6735 32.168 31.0699c-.302.4284-.626.8788-.971 1.3237z" fill="#fff" opacity=".15"/><path d="m274.168 90.063c-.406.4559-.801.8733-1.191 1.2523l-41.804-21.1124 6.517-4.6795z" fill="#fff" opacity=".15"/><path d="m276.952 86.2787-31.289-33.7557 2.086-1.9058 29.785 34.607c-.17.335-.368.692-.582 1.0545z" fill="#fff" opacity=".15"/><path d="m243.11 63.8144c-2.021 2.6034-4.09 4.9431-6.072 6.9203h-.006c-5.057 5.0474-9.564 7.7386-11.305 6.382-2.426-1.8893 1.417-10.9022 8.587-20.1347 7.171-9.2326 14.956-15.1917 17.383-13.3024 1.746 1.3566.252 6.3876-3.388 12.5389-1.422 2.4112-3.179 4.998-5.199 7.5959z" fill="#8fb9cf"/><path d="m242.824 84.8327c-.312-.2416-.367-.6975-.126-1.0105.242-.3131.698-.368 1.01-.1264.615.4779 3.223-.3954 7.61-4.7728l.352-.3515c1.416-1.4444 2.822-3.0592 4.189-4.8167 1.482-1.9059 2.789-3.8172 3.887-5.679 3.157-5.3331 3.354-8.0792 2.74-8.5571-.313-.2416-.368-.6975-.127-1.0105.242-.3131.698-.368 1.011-.1264 2.338 1.818-.89 7.8925-2.383 10.4189-1.131 1.9113-2.471 3.8721-3.986 5.8274-1.516 1.9497-3.08 3.7347-4.656 5.3055l-.456.4449c-2.3 2.2244-6.879 6.1459-9.065 4.4542z" fill="#8fb9cf"/><path d="m243.11 63.8144c-2.021 2.6033-4.091 4.9431-6.073 6.9203h-.005c-2.586-3.3448-2.696-8.1341.016-11.6272 2.713-3.4931 7.379-4.5696 11.261-2.8945-1.422 2.4167-3.179 5.0035-5.199 7.6014z" fill="#7a9db0"/><path d="m242.347 61.4796c-.719.9282-1.812 1.2852-2.438.7964-.625-.4888-.549-1.6312.171-2.5594.719-.9282 1.811-1.2852 2.437-.7964.626.4833.549 1.6312-.17 2.5594z" fill="#fff" opacity=".15"/><path d="m276.437 107.638s-.313-6.646-2.262-8.9032c-1.955-2.2574-3.591-1.8454-3.256 0 .34 1.8452 1.828 5.0862.384 8.1562z" fill="#e9928b"/><path d="m274.136 288.226v6.53h16.532l1.499-6.53z" fill="#4a4e73"/><path d="m322.896 294.756h18.695l-.544-6.53h-20.128z" fill="#4a4e73"/><path d="m335.085 305.179-.456-.153c.022-.066.554-1.56 3.739-2.73l.165.45c-2.932 1.077-3.443 2.417-3.448 2.433z" fill="#fff"/><path d="m338.687 306.981-.461-.121c.027-.099.664-2.417 3.305-3.147l.126.461c-2.372.654-2.948 2.719-2.97 2.807z" fill="#fff"/><path d="m343.073 306.943-.477-.044c.005-.055.131-1.4 1.004-2.312l.346.329c-.752.791-.873 2.016-.873 2.027z" fill="#fff"/><path d="m280.098 303.548c-2.404-.928-4.848-.867-4.87-.867l-.016-.478c.11-.006 2.564-.066 5.057.901z" fill="#fff"/><path d="m277.337 305.317c-2.597-1.148-4.557-1.28-4.573-1.285l.027-.478c.083.005 2.054.137 4.738 1.323z" fill="#fff"/><path d="m273.159 306.179c-.736-.665-2.729-.972-2.751-.972l.072-.473c.087.011 2.152.335 2.997 1.093z" fill="#fff"/><path d="m286.308 133.14c-1.664 4.317-2.207 12.352-2.207 12.352s-.006.005-.017.016c-.461.357-12.188 9.326-18.222 3.515-.873-.84-1.532-2.01-2.021-3.421 3.338.461 6.193 3.976 10.147-.105 6.138-6.349 12.32-12.357 12.32-12.357z" fill="#379690" opacity=".4225"/><path d="m300.874 85.8779s-6.545 17.9761-1.576 21.6071c4.969 3.625 12.93-4.652 12.93-4.652s3.388.159 5.205-2.604c1.812-2.7568-1.34-3.9706-2.756-3.0864-1.417.8788-3.075-.4613-1.971-3.8501 1.103-3.3887.472-3.548-1.658-3.0756-2.136.4668-9.938-3.3943-10.174-4.339z" fill="#e9928b"/><path d="m337.132 288.318c-6.962-52.023-18.497-91.661-18.612-92.056l1.378-.407c.115.396 11.684 40.144 18.656 92.271z" fill="#4a4e73"/><path d="m560.542 101.439s-2.055-6.8569-2.055-9.0535 2.009-8.3672 3.13-8.5035 3.311 11.9321 4.275 13.5783c.96 1.6462-.822 3.9787-.822 3.9787z" fill="#91415c"/><path d="m458.162 253.441-7.289-8.034 2.796-2.868 5.659-5.802 6.981 7.691-5.452 6.029z" fill="#91415c"/><path d="m460.857 250.457-7.188-7.918 5.659-5.802 6.981 7.691z" fill="#75354a"/><path d="m450.873 245.407 7.289 8.029s-.399 6.943 2.71 11.195c3.115 4.252 3.948 7.221 2.524 10.372l-21.68-23.89z" fill="#fdab3f"/><path d="m458.091 256.315c-1.686-1.222-5.648-2.323-5.689-2.333l.116-.424c.167.045 4.079 1.131 5.831 2.398z" fill="#fff"/><path d="m458.414 258.638c-2.004-.843-5.128-.505-5.158-.5l-.051-.439c.131-.015 3.276-.354 5.381.535z" fill="#fff"/><path d="m455.062 261.834-.162-.409c.086-.035 2.136-.828 4.104-.954l.025.439c-1.892.121-3.947.919-3.967.924z" fill="#fff"/><path d="m441.734 251.102-1.734 1.575 21.682 23.89 1.734-1.575z" fill="#dceceb"/><path d="m513.512 181.955s-.136.752-.389 2.04c-.53 2.737-1.58 7.903-2.928 13.437-1.741 7.115-3.982 14.841-6.284 18.815-2.665 4.595-13.634 14.29-23.154 22.233-8.097 6.751-15.144 12.235-15.144 12.235l-14.739-15.128s30.498-27.5 31.321-28.596c.823-1.101 4.442-17.078 5.815-29.697.596-5.463 2.267-11.285 3.973-16.133 2.231-6.347 4.523-11.023 4.523-11.023l14.26 5.211.141 1.338 1.383 13.412z" fill="#489da2"/><path d="m513.122 183.995c-.53 2.737-1.58 7.903-2.927 13.437-1.742 7.115-3.983 14.841-6.285 18.815-2.665 4.595-13.634 14.29-23.154 22.233 2.281-12.417 16.966-11.301 14.79-20.38-2.261-9.463 7.198-13.169 3.427-25.51-3.77-12.347 2.332-20.572 2.332-20.572s5.533 5.524 11.817 11.977z" fill="#408c91"/><path d="m543.142 85.3924s-2.494 1.9189-4.276 5.903c-.697 1.5553-1.282 3.4236-1.57 5.6151-1.03 7.8165-14.603-.616-14.603-.616l6.582-13.7854 5.391-2.8782 4.2 2.858z" fill="#91415c"/><path d="m522.698 94.34s1.075-3.3529 2.595-3.4792c1.519-.1211 12.624 1.4998 13.139 4.0801.515 2.5854 0 4.2316 0 4.2316z" fill="#f5911f"/><path d="m564.792 106.242 1.096-5.075s-5.073-1.3181-6.992-1.071c-1.918.248-3.7 6.146-3.7 6.146z" fill="#f5911f"/><path d="m536.272 132.712s7.107 1.908 22.13-11.589c15.022-13.498-12.463-8.165-12.463-8.165z" fill="#f5911f"/><path d="m562.192 257.184h-45.783v1.323h45.783z" fill="#040707"/><path d="m534.198 307.341-13.938-64.104-13.937 64.104-1.292-.282 14.583-67.074c.066-.303.334-.52.646-.52.313 0 .581.217.647.52l14.583 67.074z" fill="#040707"/><path d="m534.546 269.409h-10.843l-.242-3.999-.49-8.09h10.379l.802 8.09z" fill="#91415c"/><path d="m534.152 265.41h-10.691l-.49-8.09h10.379z" fill="#75354a"/><path d="m523.703 269.409h10.843s4.871 4.964 10.111 5.514c5.239.551 7.995 1.929 9.373 5.1h-32.255z" fill="#fdab3f"/><path d="m531.078 274.039-.237-.374c.146-.091 3.579-2.262 5.694-2.701l.091.429c-2.03.429-5.513 2.626-5.548 2.646z" fill="#fff"/><path d="m534.728 276.201-.359-.257c.076-.106 1.938-2.661 4.013-3.626l.187.399c-1.974.914-3.826 3.459-3.841 3.484z" fill="#fff"/><path d="m538.68 277.346-.414-.156c.035-.086.823-2.141 2.05-3.676l.343.277c-1.181 1.475-1.974 3.535-1.979 3.555z" fill="#fff"/><path d="m554.03 280.028h-32.255v2.343h32.255z" fill="#dceceb"/><path d="m580.112 307.341-13.942-64.104-13.942 64.104-1.292-.282 14.583-67.074c.066-.303.333-.52.646-.52s.581.217.646.52l14.584 67.074z" fill="#040707"/><path d="m556.983 281.71h-45.91v1.323h45.91z" fill="#040707"/><path d="m541.053 263.683h-22.211s.434-37.019.434-43.603c0-4.681-4.437-12.412-9.076-22.653-1.883-4.161-3.796-8.736-5.461-13.694-2.322-6.923-3.711-12.882-4.538-17.532-1.222-6.863-1.222-10.862-1.222-10.862l11.933 1.338 17.41 1.954s1.908 6.746 4.275 15.457c3.776 13.912 8.718 32.827 8.885 37.215.272 7.135-.429 52.38-.429 52.38z" fill="#489da2"/><path d="m532.597 174.093c-4.815-2.03-9.772-3.974-14.699-3.727-1.908.096-3.791-.01-5.613-.272-4.483-.631-8.632-2.177-12.095-3.888-3.624-1.788-6.496-3.762-8.212-5.05 2.231-6.347 4.522-11.023 4.522-11.023l14.26 5.211.142 1.338 17.41 1.954c.01 0 1.918 6.747 4.285 15.457z" fill="#408c91"/><path d="m601.676 104.939s-18.51 18.108-23.856 19.34c-5.345 1.232-25.092-5.145-28.383-4.938-1.49.096-4.629 10.559-7.607 21.991-3.61 13.815-6.997 29.035-6.997 29.035s-9.252-3.701-24.27-4.732c-2.211-.151-4.209-.479-6.012-.934-10.459-2.62-14.345-9.352-14.345-9.352 14.81-21.193 15.012-39.71 18.101-51.228 3.084-11.5228 15.426-12.3458 24.679-9.4625 4.099 1.2775 12.958 2.8782 17.071 4.3224 4.114 1.4391 25.3 9.6701 26.739 9.6701 1.438 0 18.919-9.8771 18.919-9.8771 5.547-.0101 5.961 6.1651 5.961 6.1651z" fill="#ffab40"/><path d="m596.053 100.06s3.564-3.1507 6.583-4.3828c3.018-1.2321 7.127-3.767 7.127-2.4339s-3.7 3.2216-3.7 3.2216l11.277-1.0251s-4.972 5.0392-8.945 5.9992c-3.978.959-9.051 2.742-9.051 2.742z" fill="#91415c"/><path d="m628.689 54.8424-67.901 5.6644 3.281 39.3646 67.902-5.6644z" fill="#3fb8a9"/><path d="m624.931 59.2852-59.702 4.9804 2.597 31.1626 59.703-4.9805z" fill="#fff"/><path d="m574.176 95.3601 11.615-24.6521 15.532 22.3848z" fill="#3fb8a9"/><path d="m600.092 93.244 8.98-19.0672 12.014 17.315z" fill="#3fb8a9"/><path d="m597.915 73.3291c2.236-.1102 3.959-2.0127 3.849-4.2494s-2.012-3.9607-4.248-3.8505-3.959 2.0127-3.849 4.2495c.11 2.2367 2.012 3.9606 4.248 3.8504z" fill="#3fb8a9"/><path d="m535.505 263.849h-1.323c0-.399.051-39.751-.176-49.234-.227-9.362-16.552-47.345-16.714-47.729l1.212-.525c.676 1.571 16.592 38.599 16.824 48.219.233 9.503.177 48.87.177 49.269z" fill="#408c91"/><path d="m541.829 141.325c-3.609 13.816-6.996 29.035-6.996 29.035s-9.253-3.701-24.27-4.731c-2.211-.152-4.21-.48-6.012-.934.344-.384.717-.758 1.126-1.121 12.387-11.109 17.021-3.702 23.084-11.725 4.527-5.999 8.924-6.333 13.068-10.524z" fill="#f5911f"/><path d="m548.609 66.4611 2.261-2.3682s.207-4.2164-4.043-9.7053-6.719-3.4287-4.801 0c1.919 3.4286-3.841 1.6461-8.98.9594-5.138-.6867-9.389.0404-6.855 3.3832 2.539 3.3378.344 3.4741-5.966 6.0848-6.31 2.6106-5.346 6.4483 0 6.8573s1.787 3.565-2.327 7.9531c-4.119 4.3881-.964 6.8573 3.564 4.3881 4.522-2.4693 5.487.2727 3.977 4.1154-1.509 3.8427 3.842.5504 6.305-2.1966 2.468-2.7419 1.782 2.0552 5.553-3.979 3.775-6.0242 11.312-15.4922 11.312-15.4922z" fill="#0c1b3c"/><path d="m543.142 85.392s-2.494 1.9188-4.275 5.9029c-3.004-3.1913-1.278-8.6752-1.278-8.6752l1.278-.1363z" fill="#75354a"/><path d="m550.876 64.0982s-.687 6.9634.615 10.5284c1.303 3.565 2.605 3.7013 1.03 5.0748s-2.604 1.0957-2.948 2.6763c-.343 1.5754.344 6.9936-3.634 6.8573s-8.228-5.8272-8.637-7.2714c0 0-4.179-1.3735-4.25-4.8678-.071-3.4993 3.362-4.6658 4.73-3.0196 1.373 1.6461 2.877-.4797 2.948-3.0853.07-2.6056 1.716-6.3069 4.522-6.105 2.812.2071 4.114-2.6055 5.624-.7877z" fill="#91415c"/><path d="m1212.48 309.944s.05-30.759-33.62-15.8c0 0-7.4-26.479-26.79-25.227s-21.27 26.31-21.27 26.31-26.55-13.502-40.8 13.881z" fill="#adccc7"/><path d="m1155.76 308.852-.83-.114c2.25-16.019-6.38-27.506-6.47-27.621l.67-.507c.08.115 8.92 11.881 6.63 28.242z" fill="#6eab9c"/><path d="m1156.06 299.022-.67-.493c.07-.11 7.95-10.944 9.29-17.755l.82.16c-1.37 6.998-9.11 17.641-9.44 18.088z" fill="#6eab9c"/><path d="m1155.69 304.7c-6.15-.384-11.59-7.665-11.82-7.975l.67-.494c.06.074 5.44 7.277 11.2 7.638z" fill="#6eab9c"/><path d="m1175.41 308.742 1.12-.804c.11-.077 10.77-7.632 22.18-8.167l.04.832c-8.94.415-17.42 5.253-20.51 7.203l11.07-.384.03.832z" fill="#6eab9c"/><path d="m1184.18 304.417-.79-.27c1.75-5.111 5.45-9.943 5.61-10.149l.66.507c-.04.05-3.77 4.933-5.48 9.912z" fill="#6eab9c"/><path d="m1130.61 308.596c-.08-.069-8.35-7.016-17.57-10.255l.27-.785c9.37 3.288 17.75 10.332 17.84 10.4z" fill="#6eab9c"/><path d="m1109.11 306.162-.38-.745c.24-.123 6.07-3.042 16.78-1.548l-.11.826c-10.44-1.448-16.24 1.439-16.29 1.467z" fill="#6eab9c"/><path d="m231.479 309.944s.051-30.759-33.619-15.8c0 0-7.402-26.479-26.789-25.227-19.392 1.252-21.269 26.31-21.269 26.31s-26.556-13.502-40.802 13.881z" fill="#adccc7"/><path d="m174.76 308.852-.827-.114c2.242-16.019-6.383-27.506-6.47-27.621l.662-.507c.087.115 8.922 11.881 6.635 28.242z" fill="#6eab9c"/><path d="m175.062 299.022-.676-.493c.077-.11 7.954-10.944 9.296-17.755l.818.16c-1.375 6.998-9.11 17.641-9.438 18.088z" fill="#6eab9c"/><path d="m174.687 304.7c-6.15-.384-11.589-7.665-11.817-7.975l.671-.494c.055.074 5.438 7.277 11.196 7.638z" fill="#6eab9c"/><path d="m194.413 308.742 1.118-.804c.105-.077 10.767-7.632 22.178-8.167l.041.832c-8.936.415-17.424 5.253-20.511 7.203l11.073-.384.027.832z" fill="#6eab9c"/><path d="m203.179 304.417-.79-.27c1.754-5.111 5.452-9.943 5.607-10.149l.662.507c-.036.05-3.771 4.933-5.479 9.912z" fill="#6eab9c"/><path d="m149.61 308.596c-.082-.069-8.351-7.016-17.574-10.255l.274-.785c9.374 3.288 17.752 10.332 17.839 10.4z" fill="#6eab9c"/><path d="m128.109 306.162-.379-.745c.242-.123 6.068-3.042 16.785-1.548l-.114.826c-10.438-1.448-16.237 1.439-16.292 1.467z" fill="#6eab9c"/><path d="m1190 42h55.27v19.0425h-9.85l5.14 12.1088-18.37-12.1088h-32.19z" fill="#eb908b"/><path d="m1239.53 47.5635h-42.97v2.1011h42.97z" fill="#fff"/><path d="m1239.53 53.4004h-42.97v2.1011h42.97z" fill="#fff"/><path d="m1443 308h-1443v6h1443z" fill="#aecbc7"/><path d="m1371.14 132.245c-.42.552-.92.968-1.46 1.265-4.51 2.48-12.6-2.919-16.3-2.745-4.15.201-6.12 5.627-15.89 1.777-9.77-3.851-7.5-19.047-6.9-24.775.59-5.724-2.96-8.5874-9.08-8.391-6.12.2009-12.57-3.1563-9.79-12.8305 2.78-9.6697-5.06-14.7444-9.75-13.027-4.68 1.7175-2.17-6.5134-2.17-6.5134s4.01-5.705 11.92-4.8783c2.48.2604 4.27 1.078 5.63 2.2107 0 0 .01.0001.01.0092.32.2649.61.5481.89.8405 0 .0091.01.0136.02.0228 2.28 2.4802 3.18 5.9471 4.63 8.6009 2.37 4.3438 6.31 4.0469 12.43 2.1741 6.12-1.8773 18.45-1.0094 21.11 9.2176 2.67 10.2269-4.43 22.1714 8.3 25.1354 12.72 2.951 10.35 16.773 6.4 21.907z" fill="#0c1b3c"/><path d="m1300.28 66.1873s3.69 2.4345 3.27 7.3722c0 0 0 1.4251-1.62.6943s-2.94-6.0796-2.8-7.2307c.15-1.1556.74-.9729 1.15-.8358z" fill="#3fb8a9"/><path d="m1298.72 88.2214c-5.65 4.933-8.43 4.5904-10.08 2.1696-.61-.8998-2.32-3.1334-4.23-5.5771-3.19-4.1154-6.93-8.8293-6.93-8.8293s-5.92-.3745-6.05-4.9559c-.02-.877.14-1.7539.49-2.6035 1.46-3.5993 6.09-6.7144 12.53-7.2443 7.97-.6577 15.2 3.2933 17.31 8.8201 2.09 5.5223 2.62 13.2873-3.04 18.2204z" fill="#0c1b3c"/><path d="m1284.41 84.814c-3.19-4.1154-6.93-8.8293-6.93-8.8293s-5.92-.3745-6.05-4.9558c-.02-.877.14-1.754.49-2.6036 1.18-1.8407 3.39-3.4257 7.53-2.905 8.88 1.1191 4.76 15.9594 6.95 17.5215.8.5755-.28 1.2059-1.99 1.7722z" fill="#1b5175" opacity=".2704"/><path d="m1252.95 176.167s-3.14.923-4.69 2.087c-1.54 1.165-5.29 2.974-5.37 3.581-.07.608 3.16-.338 4.42-.831 1.27-.493 1.07.722-.51 2.22s-2.22 2.156-4.04 3.54c-1.82 1.388-2.03 2.01-1.33 2.261s1.35-.206 1.35-.206-1.64 1.243-.99 1.937 2.65-.781 2.65-.781-.57 1 .81.968 1.85-.653 3.48-1.133c1.63-.479 6.54-5.663 7.68-7.468 1.15-1.804 1.72-3.366 1.72-3.366z" fill="#ffac95"/><path d="m1286.8 133.51s3.01 15.036-4.34 23.455c-7.36 8.418-24.12 23.815-24.12 23.815l-6.17-4.837s15.1-19.988 17.17-27.661c.44-1.636.86-4.778.86-4.778z" fill="#f5911f"/><path d="m1265.5 173.97s-.47-1.736.22-3.257c.7-1.521 4 3.033 4 3.033l.87 3.791z" fill="#ffac95"/><path d="m1346.95 277.194c2.82 3.033 8.8 14.452 8.8 14.452l-4.43 3.22s-5.07-7.623-6.12-7.166c-1.05.456-.02 11.629-1.43 12.652s-10.77 7.829-10.77 7.829-.4-3.937 1.42-7.573c1.62-3.216 3.28-9.848-.94-19.847-.55-1.297-1.2-2.649-1.95-4.056l9.72-9.066s1.2 2.704 2.81 5.435c.88 1.517 1.89 3.042 2.89 4.12z" fill="#1b5175"/><path d="m1331.53 276.71 9.72-9.066s1.2 2.704 2.81 5.435l-10.58 7.683c-.55-1.293-1.2-2.645-1.95-4.052z" fill="#e9928b"/><path d="m1349.13 265.459-21.58 14.745s-11.28-13.882-21.29-26.639c-6.68-8.519-12.79-16.53-14.58-19.591-3.61-6.166-8.77-30.539-10.62-39.679-.44-2.174-.69-3.489-.69-3.489l2.64-7.423 5.13-14.411.38-1.069s3.71-1.909 7.83-2.932c1.1-.274 2.23-.484 3.32-.58 3.36-.288 6.43.511 7.39 3.933.05.201.1.411.14.63.19 1.023.4 2.334.62 3.855 1.86 12.954 4.48 41.529 5.3 44.74.93 3.59 36.01 47.91 36.01 47.91z" fill="#5f6386"/><path d="m1306.26 253.565c-6.68-8.519-12.79-16.53-14.58-19.59-3.61-6.167-8.77-30.54-10.62-39.68.51-2.046.91-3.398 1.1-3.69 1.11-1.667 25.67-17.787 25.67-17.787s1.02 14.411-3.85 23.606c-4.86 9.199-9.03 15.941-5.14 25.848 3.89 9.912-4.45 15.617 2.23 21.176 3.85 3.215 4.95 7.272 5.19 10.117z" fill="#4a4e73"/><path d="m1264.5 291.318c.5 4.111-1.37 16.868-1.37 16.868h-5.47s.37-9.149-.75-9.4-6.85 9.4-8.59 9.4c-1.75 0-13.32 0-13.32 0s1.99-3.421 5.6-5.289c3.2-1.654 8.44-6.043 10.9-16.613.32-1.37.59-2.845.81-4.426l13.19-1.617s-.62 2.892-.93 6.048c-.17 1.735-.25 3.563-.07 5.029z" fill="#1b5175"/><path d="m1252.31 281.853 13.19-1.617s-.62 2.892-.93 6.048h-13.07c.32-1.375.59-2.846.81-4.431z" fill="#e9928b"/><path d="m1276.95 161.856s-18.94 44.484-24.47 62.905c-5.52 18.426-13.94 58.169-13.94 58.169h28.94s11.32-53.957 16.32-62.645c5-8.687 23.68-40.273 20.78-51.591-2.9-11.314-27.63-6.838-27.63-6.838z" fill="#5f6386"/><path d="m1307.83 172.818-8.78 22.797-28.46-18.078 17.56-8.556 8.2-4.001 2.3-1.124 1.02.544 7.39 3.933c.06.201.11.411.15.63.19 1.019.4 2.33.62 3.855z" fill="#4a4e73"/><path d="m1293 101.86s-6.84 2.878-12.63 10.775c-5.79 7.898-12.63 22.578-13.15 25.369-.53 2.791 4.51 24.971 4.49 30.695-.02 5.723 26.92 3.608 34.55-.078 0 0-2.99-20.979-2.99-23.875s.26-22.372-1.32-31.32-8.95-11.566-8.95-11.566z" fill="#ffab40"/><path d="m1291.37 122.497s-1.08 7.203 0 12.625-7.38 2.124-10.31 13.159c-2.93 11.036 22.17 5.683 22.17 5.683s6.91-10.638 6.96-12.447c.05-1.804-18.82-19.02-18.82-19.02z" fill="#f5911f"/><path d="m1293 101.86s-13.22 13.603-12.06 10.022c.64-1.974-.47-6.692-1.6-10.533-.93-3.1383-1.86-5.6916-1.86-5.6916s2.54-2.5852 5.2-4.7914c2.82-2.3387 5.77-4.2479 5.96-2.1834.38 4.015 4.36 13.1774 4.36 13.1774z" fill="#ffac95"/><path d="m1258.77 129.232-14.89 32.095 55.36 25.713 14.9-32.095z" fill="#3fb8a9"/><path d="m1260.56 134.128-11.79 25.408 48.68 22.608 11.79-25.408z" fill="#fff"/><path d="m1253.76 162.317 19.97-14.037 2.16 24.314z" fill="#3fb8a9"/><path d="m1274.87 172.165 15.44-10.857 1.67 18.809z" fill="#3fb8a9"/><path d="m1286.88 154.125c.91-1.788.19-3.974-1.6-4.881-1.78-.907-3.97-.193-4.88 1.596-.9 1.788-.19 3.974 1.6 4.881s3.97.193 4.88-1.596z" fill="#3fb8a9"/><path d="m1275.79 166.959s-2.57.365-4.39.831-5.41.21-5.82 1.042c-.42.831 4.03 1.562 5.11 1.662 1.08.101-1.68 1.626-3.24 2.06s-2.81 1.06-1.2 2.517c1.62 1.457 4.11 3.641 5.15 3.796s6.14-3.695 8.95-6.555c2.8-2.859-4.56-5.353-4.56-5.353z" fill="#ffac95"/><path d="m1293.26 106.711c-4.96 3.8-3.02 13.557-.52 19.874s9.6 17.9 9.07 18.951c-.52 1.055-26.85 21.039-26.85 21.039l5.41 6.796s24.99-12.57 31.18-17.042c6.18-4.476 6.71-9.345 4.87-15.662s-12.5-42.1137-23.16-33.956z" fill="#ffab40"/><path d="m1257.2 283.04-1.23-.215c.39-2.274 9.75-55.716 11.4-60.745 1.64-5.001 14.51-37.541 15.06-38.921l1.16.462c-.13.338-13.41 33.882-15.03 38.852-1.62 4.938-11.26 60.01-11.36 60.567z" fill="#4a4e73"/><path d="m1339.62 272.014c-.19-.247-19.7-24.707-29.92-37.354-10.31-12.762-14.12-30.681-14.16-30.859l1.22-.256c.04.178 3.8 17.805 13.92 30.324 10.22 12.648 29.72 37.113 29.92 37.359z" fill="#4a4e73"/><path d="m1371.14 132.244c-.42.553-.92.968-1.46 1.265 4.39-5.225 1.17-12.15-10.09-12.008-11.26.137-14.32-9.597-7.64-25.725 6.67-16.1284-10.15-17.3845-17.24-13.7669s-14.32.2786-14.04-7.5458c.19-5.2345-1.36-7.9933-2.41-9.2494 2.29 2.4802 3.18 5.947 4.63 8.6008 2.37 4.3438 6.32 4.047 12.44 2.1742 6.11-1.8773 18.44-1.0094 21.11 9.2175 2.66 10.227-4.44 22.1716 8.29 25.1356 12.73 2.946 10.36 16.768 6.41 21.902z" fill="#1b5175" opacity=".2704"/><path d="m1286.42 90.2637s-1.98 7.2626-7.08 11.0853c-.93-3.1376-1.86-5.6909-1.86-5.6909s2.54-2.5853 5.2-4.7915z" fill="#e9928b"/><path d="m1277.87 71.4439s-3.55 8.8156-6.91 10.5285c-3.35 1.7128-1.12 2.1056 0 4.0149 1.12 1.9092-3.16 7.8289.53 10.5284 3.68 2.6995 12.23-1.7129 14.93-6.2531 0 0 4.67.1964 5.79-3.3572s-2.5-5.7918-4.6-4.2114c-2.11 1.5804-2.37-1.7129-3.29-6.6459-.92-4.9331-6-5.6547-6.45-4.6042z" fill="#ffac95"/><path d="m1196.71 149.581-146.79 2.503-2.92-2.503v-48.253h149.71l2.92 2.503z" fill="#b6d5d0"/><path d="m1196.71 96.8436-146.79 2.5031-2.92-2.5031v-10.8436h149.71l2.92 2.5031z" fill="#b6d5d0"/><path d="m1199.63 103.831h-149.71v48.253h149.71z" fill="#dceceb"/><path d="m1199.63 88.5029h-149.71v10.8482h149.71z" fill="#edf6f5"/><path d="m1078.57 95.9526c1.12 0 2.03-.908 2.03-2.0281 0-1.12-.91-2.028-2.03-2.028s-2.02.908-2.02 2.028c0 1.1201.9 2.0281 2.02 2.0281z" fill="#67a4c3"/><path d="m1071.06 93.9245c0 1.1191-.91 2.0281-2.03 2.0281s-2.03-.909-2.03-2.0281c0-1.119.91-2.028 2.03-2.028s2.03.909 2.03 2.028z" fill="#eb908b"/><path d="m1059.49 95.9526c1.12 0 2.03-.908 2.03-2.0281 0-1.12-.91-2.028-2.03-2.028s-2.03.908-2.03 2.028c0 1.1201.91 2.0281 2.03 2.0281z" fill="#ffaa3f"/><path d="m1169.53 106.184c-10.64 0-19.27 8.632-19.27 19.28 0 10.647 8.63 19.28 19.27 19.28 10.65 0 19.28-8.633 19.28-19.28 0-10.648-8.63-19.28-19.28-19.28zm0 31.69c-6.85 0-12.4-5.559-12.4-12.41 0-6.856 5.56-12.411 12.4-12.411 6.85 0 12.41 5.559 12.41 12.411 0 6.851-5.55 12.41-12.41 12.41z" fill="#b2e5e0"/><path d="m1187.74 113.492c-3.49-3.49-8.3-5.641-13.62-5.641-10.65 0-19.27 8.632-19.27 19.28 0 1.228.11 2.434.33 3.604 1.69 8.925 9.52 15.676 18.94 15.676 3.52 0 6.82-.941 9.66-2.59 5.75-3.339 9.61-9.56 9.61-16.69.01-5.331-2.15-10.154-5.65-13.639zm-7.4 24.377c-1.83 1.064-3.96 1.672-6.22 1.672-6.06 0-11.11-4.348-12.19-10.099-.14-.745-.22-1.521-.22-2.311 0-6.856 5.56-12.411 12.41-12.411 3.42 0 6.52 1.384 8.77 3.627 2.24 2.247 3.63 5.358 3.63 8.784.01 4.59-2.48 8.596-6.18 10.738z" fill="#3fb8a9"/><path d="m1193.4 127.131c0 7.13-3.87 13.356-9.61 16.69l-3.45-5.951c3.7-2.143 6.19-6.148 6.19-10.739 0-3.43-1.39-6.536-3.64-8.783l4.85-4.856c3.5 3.485 5.66 8.309 5.66 13.639z" fill="#fff"/><path d="m1183.79 143.821c-2.84 1.649-6.14 2.59-9.67 2.59-9.41 0-17.25-6.751-18.93-15.676l6.75-1.293c1.08 5.751 6.13 10.099 12.19 10.099 2.26 0 4.39-.607 6.22-1.671z" fill="#ffc945"/><path d="m1124.98 113.282h-67.1v3.134h67.1z" fill="#fff"/><path d="m1124.98 126.213h-67.1v3.133h67.1z" fill="#fff"/><path d="m1124.98 139.148h-67.1v3.134h67.1z" fill="#fff"/><path d="m691.038 153.705h-85.038s5.849-13.054 19.346-7.651c0 0 4.95-13.502 16.648-11.926s13.949 9.724 13.949 9.724 12.598-5.001 24.748 5.13c0 0 9.899-1.128 10.347 4.723z" fill="#edf6f5"/><path d="m1144.04 19.7049h-85.04s5.85-13.05434 19.35-7.6508c0 0 4.95-13.50201 16.64-11.926161 11.7 1.575841 13.95 9.724521 13.95 9.724521s12.6-5.0016 24.75 5.12944c0 0 9.9-1.1281 10.35 4.723z" fill="#edf6f5"/><path d="m169.038 99.7049h-85.038s5.8491-13.0543 19.346-7.6508c0 0 4.95-13.502 16.648-11.9262 11.698 1.5759 13.949 9.7246 13.949 9.7246s12.598-5.0016 24.748 5.1294c0 0 9.899-1.1281 10.347 4.723z" fill="#edf6f5"/><path d="m449.038 192.705h-85.038s5.849-13.054 19.346-7.651c0 0 4.95-13.502 16.648-11.926s13.949 9.724 13.949 9.724 12.598-5.001 24.748 5.13c0 0 9.899-1.128 10.347 4.723z" fill="#edf6f5"/><path d="m753.374 242.8v-20.53c0-6.4-5.186-11.588-11.584-11.588h-14.645v97.642h18.773 7.456 23.165v-42.351c0-6.4-5.187-11.589-11.585-11.589-6.393.005-11.58-5.184-11.58-11.584z" fill="#b6d5d0"/><path d="m879.25 283.906-9.345 9.13-3.144-4.677-5.016-7.463 12.017-5.586 3.28 5.14z" fill="#e9928b"/><path d="m877.042 280.45c-4.819 2.458-8.519 6.019-10.281 7.909l-5.016-7.463 12.017-5.586z" fill="#de6667"/><path d="m906.823 10h-198.391v103.482h198.391z" fill="#edf6f5"/><path d="m751.271 19.2959h-31.954v29.4807h31.954z" fill="#dceceb"/><g fill="#b6d5d0"><path d="m887.126 45.9849h-1.198v-1.798h-1.798v-1.1986h2.996z"/><path d="m879.228 44.1869h-4.903v-1.1986h4.903zm-9.8 0h-4.903v-1.1986h4.903zm-9.805 0h-4.902v-1.1986h4.902zm-9.8 0h-4.902v-1.1986h4.902zm-9.805 0h-4.902v-1.1986h4.902zm-9.8 0h-4.902v-1.1986h4.902zm-9.8 0h-4.902v-1.1986h4.902zm-9.804 0h-4.903v-1.1986h4.903zm-9.801 0h-4.902v-1.1986h4.902z"/><path d="m789.212 45.9849h-1.198v-2.9966h2.996v1.1986h-1.798z"/><path d="m789.212 94.9496h-1.198v-4.8952h1.198zm0-9.7905h-1.198v-4.8996h1.198zm0-9.7948h-1.198v-4.8952h1.198zm0-9.7948h-1.198v-4.8953h1.198zm0-9.7905h-1.198v-4.8952h1.198z"/><path d="m791.009 102.842h-2.995v-2.9924h1.198v1.7934h1.797z"/><path d="m879.228 102.842h-4.903v-1.198h4.903zm-9.8 0h-4.903v-1.198h4.903zm-9.805 0h-4.902v-1.198h4.902zm-9.8 0h-4.902v-1.198h4.902zm-9.805 0h-4.902v-1.198h4.902zm-9.8 0h-4.902v-1.198h4.902zm-9.8 0h-4.902v-1.198h4.902zm-9.804 0h-4.903v-1.198h4.903zm-9.801 0h-4.902v-1.198h4.902z"/><path d="m887.126 102.842h-2.996v-1.199h1.798v-1.7934h1.198z"/><path d="m887.126 94.9496h-1.199v-4.8952h1.199zm0-9.7905h-1.199v-4.8996h1.199zm0-9.7948h-1.199v-4.8952h1.199zm0-9.7948h-1.199v-4.8953h1.199zm0-9.7905h-1.199v-4.8952h1.199z"/></g><path d="m794.626 119.073h-104.487c-1.64 0-2.969-1.33-2.969-2.97v-51.328c0-1.6405 1.329-2.9703 2.969-2.9703h104.487c1.64 0 2.969 1.3298 2.969 2.9703v51.332c-.004 1.636-1.329 2.966-2.969 2.966z" fill="#b2e5e0"/><path d="m798.221 122.668h-104.487c-1.64 0-2.969-1.329-2.969-2.97v-51.3321c0-1.6405 1.329-2.9704 2.969-2.9704h104.487c1.64 0 2.969 1.3299 2.969 2.9704v51.3321c-.004 1.641-1.329 2.97-2.969 2.97z" fill="#3fb8a9"/><path d="m698.649 118.474h93.86s-3.127-21.9083-8.055-28.5665c-4.924-6.6582-9.053 2.5286-14.51 13.4525-5.458 10.919-16.775 15.849-25.028 4.925-8.256-10.9187-11.982-14.3835-21.17-8.5214-9.188 5.8624-16.377.9314-19.438-6.6582-3.061-7.59-5.659-7.4588-5.659-7.4588z" fill="#fff" opacity=".67"/><path d="m698.649 118.473s4.325.201 7.788-4.593c3.464-4.795 4.395-12.118 8.121-14.3842 3.726-2.2661 7.19 0 12.381 9.4882 5.19 9.489 13.311 5.027 16.775-4.427 3.463-9.4534 5.06-13.9855 10.784-14.5148 5.724-.5338 9.319 6.527 11.318 13.3168 1.998 6.793 7.189 9.055 12.38 6.26 5.191-2.796 14.313 8.858 14.313 8.858h-93.86z" fill="#fff" opacity=".28"/><path d="m700.446 73.6604c-.992 0-1.797-.8049-1.797-1.7979 0-.9931.805-1.798 1.797-1.798.993 0 1.798.8049 1.798 1.798 0 .993-.805 1.7979-1.798 1.7979z" fill="#fff"/><path d="m744.383 70.7949h-37.678v2.1306h37.678z" fill="#fff"/><path d="m700.446 80.1516c-.992 0-1.797-.8049-1.797-1.798 0-.993.805-1.7979 1.797-1.7979.993 0 1.798.8049 1.798 1.7979 0 .9931-.805 1.798-1.798 1.798z" fill="#fff"/><path d="m735.729 77.2861h-29.024v2.1305h29.024z" fill="#fff"/><path d="m755.014 22.3184h-31.954v29.4806h31.954z" fill="#fff"/><path d="m751.271 35.3643-11.619 5.2583-11.615-5.2583v7.8568h23.234z" fill="#ffab40"/><path d="m751.272 31.8164h-23.234v2.0999l11.615 5.1402 11.619-5.1402z" fill="#ffab40"/><path d="m851.424 41.2304h-64.272v-3.0009h64.272zm-63.869-.4025h63.471v-2.2047h-63.471z" fill="#fff"/><path d="m851.424 28.8409h-64.272v-3.0011h64.272zm-63.869-.3981h63.471v-2.2048h-63.471z" fill="#fff"/><path d="m851.425 16.4571h-64.272v-3.001h64.272zm-63.87-.3982h63.472v-2.2048h-63.472z" fill="#fff"/><path d="m910.618 283.118-10.272 9.585-2.563-11.488-.992-4.445 12.275-3.106.708 4.327z" fill="#e9928b"/><path d="m909.775 277.99s-2.646-.276-5.077.319c-1.785.438-6.919 2.905-6.919 2.905l-.992-4.449 12.275-3.106z" fill="#de6667"/><path d="m907.955 282.067c-5.2-.078-7.063 4.187-8.812 8.15-1.749 3.964-3.866 13.207-6.896 14.144-3.031.931-4.662 2.563-4.662 4.431h10.933s6.861-7.546 10.39-10.49 4.387-4.856 4.387-4.856-1.356-7.293-2.677-10.32c0-.009-.931-1.032-2.663-1.059z" fill="#0c1b3c"/><path d="m908.817 289.671c-3.792.787-5.187 4.856-7.518 11.619-2.33 6.759-6.953 7.498-6.953 7.498h12.914s.722-2.485 2.257-5.63c1.137-2.332 3.096-4.991 3.59-7.424 1.163-5.713-3.367-6.256-4.29-6.063z" fill="#408c91"/><path d="m909.739 274.688c-8.108.896-13.797 3.596-13.797 3.596s-2.759.896-6.752-7.507c-3.993-8.413-18.035-34.744-18.035-34.744l16.146.512 12.205.389s6.59 16.681 9.787 23.772c3.197 7.087.446 13.982.446 13.982z" fill="#376f92"/><path d="m895.946 263.331c-4.893 5.862-3.253 12.682 0 14.953 0 0-2.759.896-6.752-7.507-3.992-8.413-18.034-34.744-18.034-34.744l16.145.512 10.539 4.681s-10.381 1.33-12.712 6.794c-2.331 5.459 15.704 9.453 10.814 15.311z" fill="#1b5175"/><g fill="#f4d7c9" opacity=".4"><path d="m852.089 245.412-1.802-1.002c-1.141-.634-1.845-1.841-1.824-3.145.005-.149.009-.293.009-.442 0-.148-.004-.293-.009-.442-.021-1.303.683-2.511 1.824-3.145l1.802-1.002c1.425-.792 2.125-2.45 1.71-4.024-.009-.018-.009-.035-.018-.053-.42-1.57-1.863-2.655-3.485-2.629l-2.064.035c-1.321.022-2.528-.7-3.175-1.851-.131-.227-.263-.454-.389-.678-.683-1.133-.705-2.546-.022-3.683l1.058-1.759c.84-1.4.617-3.189-.534-4.339-.013-.013-.03-.031-.043-.044-1.15-1.151-2.939-1.374-4.338-.534l-1.758 1.059c-1.137.682-2.55.656-3.683-.022-.223-.131-.45-.262-.677-.389-1.151-.643-1.876-1.851-1.85-3.176l.035-2.065c.026-1.628-1.059-3.067-2.628-3.487-.018-.008-.035-.008-.053-.017-1.574-.416-3.232.284-4.023 1.71l-1.002 1.803c-.634 1.141-1.841 1.846-3.144 1.824-.149-.005-.293-.009-.442-.009-.148 0-.293.004-.441.009-1.303.022-2.51-.683-3.145-1.824l-1.001-1.803c-.792-1.426-2.449-2.126-4.023-1.71-.018.009-.035.009-.053.017-1.57.42-2.654 1.864-2.628 3.487l.035 2.065c.022 1.321-.7 2.528-1.85 3.176-.227.131-.455.262-.678.389-1.132.682-2.545.704-3.682.022l-1.758-1.059c-1.399-.835-3.188-.617-4.338.534-.013.013-.031.031-.044.044-1.15 1.15-1.373 2.939-.533 4.339l1.058 1.759c.682 1.137.656 2.55-.022 3.683-.131.224-.262.451-.389.678-.643 1.151-1.85 1.877-3.175 1.851l-2.064-.035c-1.627-.026-3.066 1.059-3.485 2.629-.009.018-.009.035-.018.053-.415 1.574.284 3.232 1.71 4.024l1.802 1.002c1.141.634 1.845 1.842 1.823 3.145-.004.149-.008.294-.008.442 0 .149.004.293.008.442.022 1.304-.682 2.511-1.823 3.145l-1.802 1.002c-1.426.792-2.125 2.45-1.71 4.025.009.017.009.035.018.052.419 1.571 1.863 2.656 3.485 2.63l2.064-.035c1.321-.022 2.528.7 3.175 1.85.131.228.262.455.389.678.682 1.133.704 2.546.022 3.684l-1.058 1.758c-.835 1.4-.617 3.189.533 4.34.013.013.031.03.044.044 1.15 1.15 2.939 1.373 4.338.533l1.758-1.058c1.137-.683 2.55-.657 3.682.022.223.131.451.262.678.389 1.15.643 1.876 1.85 1.85 3.176l-.035 2.065c-.026 1.627 1.058 3.066 2.628 3.486.018.009.035.009.053.018 1.574.415 3.231-.285 4.023-1.711l1.001-1.802c.635-1.142 1.842-1.846 3.145-1.824.148.004.293.008.441.008.149 0 .293-.004.442-.008 1.303-.022 2.51.682 3.144 1.824l1.002 1.802c.791 1.426 2.449 2.126 4.023 1.711.018-.009.035-.009.053-.018 1.569-.42 2.654-1.863 2.628-3.486l-.035-2.065c-.022-1.321.699-2.529 1.85-3.176.227-.131.454-.263.677-.389 1.133-.683 2.546-.705 3.683-.022l1.758 1.058c1.399.836 3.188.617 4.338-.533.013-.014.03-.031.043-.044 1.151-1.151 1.374-2.94.534-4.34l-1.058-1.758c-.683-1.138-.656-2.551.022-3.684.131-.223.262-.45.389-.678.643-1.15 1.85-1.877 3.175-1.85l2.064.035c1.627.026 3.065-1.059 3.485-2.63.009-.017.009-.035.018-.052.415-1.575-.285-3.237-1.71-4.025zm-30.533 15.434c-11.056 0-20.02-8.964-20.02-20.027 0-11.059 8.96-20.027 20.02-20.027 11.055 0 20.02 8.963 20.02 20.027-.005 11.063-8.965 20.027-20.02 20.027z" opacity=".4"/><path d="m830.294 243.348c1.318-4.815-1.515-9.787-6.327-11.105-4.813-1.319-9.783 1.515-11.101 6.329-1.319 4.814 1.514 9.786 6.327 11.105 4.812 1.319 9.782-1.515 11.101-6.329z" opacity=".4"/></g><path d="m1022.81 247.462-1.05-.587c-.66-.371-1.08-1.076-1.07-1.837 0-.087.01-.171.01-.258s0-.171-.01-.258c-.01-.761.4-1.466 1.07-1.837l1.05-.587c.83-.463 1.24-1.43 1-2.349-.01-.009-.01-.022-.01-.03-.25-.919-1.09-1.553-2.04-1.536l-1.2.018c-.77.013-1.48-.412-1.86-1.081-.07-.131-.15-.267-.22-.394-.4-.66-.42-1.487-.02-2.152l.62-1.028c.49-.818.36-1.859-.31-2.533-.01-.009-.02-.017-.03-.026-.67-.674-1.71-.801-2.53-.311l-1.03.617c-.66.398-1.48.385-2.15-.013-.13-.075-.26-.153-.39-.228-.68-.376-1.1-1.08-1.08-1.854l.02-1.208c.01-.949-.62-1.789-1.54-2.034-.01-.004-.02-.004-.03-.009-.92-.245-1.89.166-2.35.998l-.58 1.049c-.38.665-1.08 1.077-1.84 1.068-.09 0-.17-.004-.26-.004s-.17 0-.26.004c-.76.013-1.46-.398-1.83-1.068l-.59-1.049c-.46-.832-1.43-1.243-2.349-.998-.008.005-.022.005-.03.009-.919.245-1.548 1.085-1.535 2.034l.017 1.208c.013.769-.411 1.478-1.08 1.854-.131.075-.267.153-.394.228-.66.398-1.486.411-2.151.013l-1.028-.617c-.818-.49-1.858-.359-2.532.311-.009.009-.017.017-.026.026-.674.674-.8 1.715-.311 2.533l.617 1.028c.398.665.385 1.487-.013 2.152-.074.132-.153.263-.227.394-.377.674-1.081 1.094-1.855 1.081l-1.207-.018c-.949-.017-1.788.617-2.033 1.536-.004.008-.004.021-.009.03-.245.919.166 1.89.997 2.349l1.05.587c.664.371 1.076 1.076 1.067 1.837 0 .087-.005.171-.005.258s0 .171.005.258c.013.761-.398 1.466-1.067 1.837l-1.05.587c-.831.463-1.242 1.43-.997 2.349.005.009.005.022.009.031.245.918 1.084 1.548 2.033 1.535l1.207-.018c.77-.013 1.478.412 1.855 1.081.074.131.153.267.227.394.398.66.411 1.487.013 2.152l-.617 1.028c-.489.818-.358 1.859.311 2.533.009.009.017.018.026.026.674.674 1.714.801 2.532.311l1.028-.617c.665-.398 1.487-.385 2.151.013.132.075.263.153.394.228.674.376 1.093 1.08 1.08 1.855l-.017 1.207c-.018.949.616 1.789 1.535 2.034.008.005.022.004.03.009.919.245 1.889-.166 2.349-.998l.59-1.049c.37-.665 1.07-1.077 1.83-1.068.09 0 .17.005.26.005s.17 0 .26-.005c.76-.013 1.46.398 1.84 1.068l.58 1.049c.46.832 1.43 1.243 2.35.998.01-.005.02-.004.03-.009.92-.245 1.55-1.085 1.54-2.034l-.02-1.207c-.02-.77.41-1.479 1.08-1.855.13-.075.26-.153.39-.228.66-.398 1.49-.411 2.15-.013l1.03.617c.82.49 1.86.359 2.53-.311.01-.008.02-.017.03-.026.67-.674.8-1.715.31-2.533l-.62-1.028c-.4-.665-.38-1.487.02-2.152.07-.131.15-.263.22-.394.38-.674 1.08-1.094 1.86-1.081l1.2.018c.95.018 1.79-.617 2.04-1.535 0-.009 0-.022.01-.031.24-.919-.17-1.89-1-2.349zm-17.83 9.007c-6.45 0-11.68-5.232-11.68-11.689s5.23-11.689 11.68-11.689c6.46 0 11.69 5.232 11.69 11.689s-5.23 11.689-11.69 11.689z" fill="#f4d7c9" opacity=".16"/><path d="m916.517 188.131v-6.278l-5.65-1.461-4.329-5.162 1.128-3.088-34.486-39.42h-144.059c-1.413 0-2.559 1.146-2.559 2.559v4.458l.035.026c.088.717.381 1.439.914 2.073l38.217 45.567c2.777 3.307 6.875 5.223 11.195 5.223h135.597c2.218 0 3.774-1.68 3.997-3.578.035-.298.035-.608 0-.919z" fill="#b6d5d0"/><path d="m912.525 186.355h-135.601c-4.321 0-8.419-1.912-11.196-5.223l-38.221-45.562c-2.191-2.612-.336-6.597 3.075-6.597h135.601c4.321 0 8.418 1.911 11.195 5.223l38.221 45.562c2.191 2.612.333 6.597-3.074 6.597z" fill="#fff"/><path d="m895.632 176.333c-.267 0-.516-.118-.687-.32l-26.352-31.318c-.494-.586-.079-1.478.686-1.478.267 0 .516.118.687.319l26.352 31.318c.494.582.079 1.479-.686 1.479z" fill="#b2e5e0"/><path d="m792.57 163.275h-30.489c-.717 0-1.399-.32-1.859-.871l-14.951-17.945c-.508-.608-.075-1.526.713-1.526h30.489c.717 0 1.399.319 1.859.87l14.951 17.945c.508.608.075 1.527-.713 1.527z" fill="#dceceb"/><path d="m777.768 176.639h-4.496c-.717 0-1.395-.315-1.854-.866l-5.528-6.602c-.507-.608-.078-1.526.713-1.526h4.496c.717 0 1.395.314 1.854.866l5.527 6.601c.508.604.079 1.527-.712 1.527z" fill="#b2e5e0"/><path d="m790.765 176.639h-4.496c-.717 0-1.395-.315-1.854-.866l-5.528-6.602c-.507-.608-.078-1.526.713-1.526h4.496c.717 0 1.395.314 1.854.866l5.528 6.601c.507.604.078 1.527-.713 1.527z" fill="#b2e5e0"/><path d="m803.761 176.639h-4.495c-.717 0-1.395-.315-1.854-.866l-5.528-6.602c-.507-.608-.079-1.526.713-1.526h4.495c.717 0 1.395.314 1.854.866l5.528 6.601c.507.604.079 1.527-.713 1.527z" fill="#b2e5e0"/><path d="m827.919 151.477h-34.443c-.713 0-1.391-.315-1.85-.862l-5.156-6.146c-.507-.608-.078-1.531.713-1.531h34.443c.713 0 1.39.314 1.85.861l5.156 6.147c.507.608.078 1.531-.713 1.531z" fill="#dceceb"/><path d="m838.462 164.044h-34.443c-.713 0-1.391-.315-1.85-.862l-5.156-6.146c-.507-.604-.078-1.531.713-1.531h34.443c.713 0 1.39.315 1.85.862l5.156 6.146c.507.608.074 1.531-.713 1.531z" fill="#dceceb"/><path d="m849.027 176.639h-34.443c-.712 0-1.39-.315-1.849-.862l-5.156-6.146c-.508-.604-.079-1.531.713-1.531h34.442c.713 0 1.391.315 1.85.861l5.156 6.147c.507.608.079 1.531-.713 1.531z" fill="#dceceb"/><path d="m864.207 176.333c-.267 0-.516-.118-.687-.32l-26.352-31.318c-.494-.586-.079-1.478.686-1.478.267 0 .516.118.687.319l26.352 31.318c.495.582.079 1.479-.686 1.479z" fill="#b2e5e0"/><path d="m844.733 149.968h-3.752c-.542 0-1.347-.438-1.802-.98l-1.364-1.623c-.455-.543-.385-.98.157-.98h3.752c.542 0 1.347.437 1.802.98l1.364 1.623c.455.542.385.98-.157.98z" fill="#b2e5e0"/><path d="m844.991 149.097h-3.752c-.543 0-1.347-.438-1.802-.98l-1.364-1.623c-.455-.543-.385-.98.157-.98h3.752c.542 0 1.347.437 1.802.98l1.364 1.623c.455.542.381.98-.157.98z" fill="#dceceb"/><path d="m882.884 158.099h-3.752c-.543 0-1.347-.437-1.802-.98l-1.364-1.622c-.455-.543-.385-.98.157-.98h3.752c.542 0 1.347.437 1.802.98l1.364 1.622c.451.543.381.98-.157.98z" fill="#b2e5e0"/><path d="m883.137 157.233h-3.752c-.542 0-1.347-.437-1.802-.98l-1.364-1.623c-.455-.542-.385-.98.157-.98h3.753c.542 0 1.346.438 1.801.98l1.365 1.623c.455.538.385.98-.158.98z" fill="#dceceb"/><path d="m880.059 176.333c-.267 0-.516-.118-.687-.32l-26.352-31.318c-.494-.586-.079-1.478.687-1.478.266 0 .516.118.686.319l26.352 31.318c.495.582.079 1.479-.686 1.479z" fill="#b2e5e0"/><path d="m876.307 168.714h-3.752c-.543 0-1.347-.438-1.802-.98l-1.365-1.623c-.454-.543-.384-.98.158-.98h3.752c.542 0 1.347.437 1.802.98l1.364 1.623c.455.538.385.98-.157.98z" fill="#b2e5e0"/><path d="m876.565 167.843h-3.753c-.542 0-1.347-.438-1.801-.98l-1.365-1.623c-.455-.543-.385-.98.158-.98h3.752c.542 0 1.347.437 1.802.98l1.364 1.623c.455.542.385.98-.157.98z" fill="#dceceb"/><path d="m920.908 216.073s-2.173 6.737-9.922 12.651c-3.748 2.866-8.799 5.539-15.543 7.166-20.676 5-37.232 3.193-38.43 3.39-1.067.175 9.244 16.48 15.047 26.266.722 1.216 1.374 2.327 1.925 3.298.07.118.131.236.196.35 4.728 8.5 2.2 10.635 2.2 10.635-4.793.599-11.383 5.993-11.383 5.993-9.984 2.599-15.975-12.984-21.568-19.576-5.593-6.593-19.972-26.17-13.579-36.756 6.389-10.587 63.209-24.175 63.209-24.175l5.663 2.188 10.684 4.125z" fill="#376f92"/><path d="m873.989 268.852c.07.118.131.236.197.35-.079-.097-.145-.215-.197-.35z" fill="#1b5175"/><path d="m914.917 223.247c-.03.074-1.526 2.192-3.931 5.481-3.748 2.866-8.799 5.539-15.542 7.166-20.676 5-37.233 3.194-38.431 3.39-1.067.175 9.245 16.48 15.048 26.266-3.481-4.191-8.983-4.742-13.098-13.124-4.994-10.171-16.775.385-18.926-8.006-2.152-8.39 6.148-7.791 18.327-13.185 12.184-5.394 14.178-3.198 25.224-5.398 11.051-2.201 9.315-15.758 9.315-15.758l5.816-2.568 8.095-1.045s1.15 2.283 2.589 5.171c2.414 4.838 5.619 11.356 5.514 11.61z" fill="#1b5175"/><path d="m879.246 283.9s5.75 4.804 5.881 8.452c.132 3.649-12.104 16.011-12.104 16.011h-15.521s-1.661-2.546 2.633-4.374c4.294-1.825 4.723-1.934 6.337-3.653 1.609-1.719 3.008-6.339 5.584-11.173s7.19-5.263 7.19-5.263z" fill="#0c1b3c"/><path d="m884.94 95.6683s-3.635-2.2354-4.846-4.7509c-1.211-2.5154-4.286-8.0143-4.469-9.3179-.184-1.3037 2.422.0918 3.914 2.7035 0 0-1.024-2.7954-2.887-6.4307-1.862-3.6354-4.845-5.8709-4.097-7.6426.743-1.7717 6.149 4.939 6.8 6.0589.652 1.1199 1.955-.0919 3.634.7437 1.675.8399 1.675-.0919 3.354.9318 1.675 1.0237 3.118 3.106 4.868 12.2709z" fill="#e9928b"/><path d="m842.118 165.457s-1.968-.678-5.296-3.88c-3.324-3.202-5.296-4.37-6.402-4.864-1.107-.495-2.895-1.046-4.741-.923-1.845.122-2.834-.74-2.401-1.357.433-.616 2.156-1.045 2.156-1.045s-3.385.306-2.523-1.234c.861-1.54 5.724-.923 5.724-.923s.923-1.168 2.218-1.168c1.294 0 1.167-1.045 3.756-.739 2.585.306 3.94 1.846 6.647 2.463s4.946 6.251 4.946 6.251z" fill="#e9928b"/><path d="m846.19 157.412s-4.352 3.845-5.681 7.909l-.468 1.199 2.528 3.531 5.86-11.186z" fill="#93405e"/><path d="m884.476 99.1459-2.095-3.2942s4.093-4.7946 9.385-6.1945l1.303 2.2967z" fill="#93405e"/><path d="m947.208 141.682-15.922 8.451-2.366 1.256s-.844-.424-2.226-1.146c-4.513-2.371-14.764-7.953-19.954-12.437-2.414-2.083-6.416-7.079-10.575-12.656-7.534-10.101-15.585-22.101-15.585-22.101 5.79-8.9899 12.485-11.9865 12.485-11.9865s18.035 25.3735 20.829 27.7705c1.636 1.404 12.743 8.977 21.691 15.027 6.358 4.296 11.623 7.822 11.623 7.822z" fill="#67a4c3"/><path d="m947.208 141.681-15.922 8.452c-1.413.031-2.974.07-4.588.109-4.513-2.371-14.763-7.953-19.954-12.437-2.414-2.082-6.416-7.078-10.575-12.656 3.307 1.724 6.569 3.238 8.467 4.874 4.128 3.574 2.93-.801 21.306 1.728 3.629.498 6.839 1.238 9.651 2.1 6.35 4.304 11.615 7.83 11.615 7.83z" fill="#4f91b3"/><path d="m934.5 139.134s-13.78 8.457-13.81 3.133c-.009-1.785-.333-3.329-.757-4.585-.839-2.493-2.077-3.876-2.077-3.876s-.004.005-.009.013c-4.92 5.245-7.115 3.583-7.714 2.586-.599-.998-4.662-9.388-4.063-12.188.6-2.796.468-4.462-.398-6.195-.861-1.728.398-5.923.398-5.923l11.72-2.467s10.85 11.055 11.782 14.782c.931 3.731 4.928 14.72 4.928 14.72z" fill="#e9928b"/><path d="m950.077 175.362c-3.594 10.788-23.147 46.813-33.38 47.841-4.172.42-9.555-2.305-14.462-5.683-7.128-4.904-13.263-11.177-13.263-11.177 8.987-6.374 7.788-26.471 7.788-26.471s0 .005-.004.009c-.197.162-12.844 10.67-21.323 11.658-8.55.998-36.188-18.181-36.188-18.181s6.192-15.582 9.188-14.983c2.996.6 22.766 13.387 26.151 13.583 3.385.202 22.574-16.982 27.35-21.777 4.78-4.794 23.58-12.187 36.76-12.384 0 0 8.589 1.4 11.584 7.791 2.992 6.4 3.394 18.986-.201 29.774z" fill="#67a4c3"/><path d="m911.79 100.239c-6.258.753-12.201 5.39-10.281 10.04 1.92 4.646 5.668 5.206 8.069 5.236 2.4.031 3.196 1.457 4.036 2.756.84 1.3 1.211.495 2.265-1.609 1.054-2.109 3.468-.6 3.529 2.239.062 2.84-.433 9.721 4.645 9.843 5.077.123 6.07-1.981 6.258-1.981s4.333-8.487 4.027-15.924c0 0 5.265-2.725 4.273-7.065-.993-4.3354-6.691-5.206-10.098-1.706 0 0-2.851.153-5.514-1.641-2.664-1.7977-6.258-2.6639-7.929-1.6096-1.67 1.0499-1.732 1.2336-3.28 1.4216z" fill="#0c1b3c"/><path d="m916.256 243.094h-5.349v60.79h5.349z" fill="#f0d1aa"/><path d="m916.255 303.883h-2.676v-60.79l2.676-.166z" fill="#edbf84"/><path d="m934.749 308.38h-42.34c0-1.242.503-2.362 1.316-3.176.813-.813 1.937-1.316 3.179-1.316h33.35c2.484-.005 4.495 2.008 4.495 4.492z" fill="#edbf84"/><path d="m921.241 308.38h-28.828c0-1.242.503-2.362 1.316-3.176.814-.813 1.938-1.316 3.18-1.316h16.674z" fill="#f0d1aa"/><path d="m966.122 179.311c-.381.175-.752.364-1.115.565-.118.065-.236.131-.35.197-.118.065-.232.131-.346.201-.113.065-.227.135-.341.21-.105.065-.21.131-.31.197-.123.078-.241.157-.354.24-.11.075-.219.149-.328.228-.11.079-.219.157-.324.236-.359.267-.713.547-1.058.836-.127.105-.25.21-.372.319-.437.385-.861.787-1.268 1.207l-.013.013c-.167.171-.333.346-.499.525-.022.027-.048.057-.074.084-.162.175-.319.354-.477.538-.175.201-.341.402-.507.608-.009.013-.022.026-.031.039-.157.193-.31.389-.459.586-.162.206-.319.416-.472.63-.009.013-.018.022-.026.035-.154.21-.302.42-.447.635-.157.223-.306.446-.454.673 0 0 0 .005-.005.005-.131.201-.258.402-.384.608-.035.057-.07.113-.105.17-.031.048-.066.101-.097.153-.236.385-.463.775-.686 1.173-.271.481-.538.975-.787 1.474-.132.249-.258.503-.381.757-.127.254-.249.507-.367.765-.241.517-.477 1.037-.704 1.567-.114.262-.228.529-.337.796-.114.267-.223.538-.328.805-.096.232-.184.463-.276.7-.118.31-.236.621-.354.936-.105.275-.201.547-.301.827-.014.03-.022.065-.035.096-.088.245-.175.49-.259.735-.196.568-.393 1.142-.581 1.719-.088.267-.175.538-.258.805-.088.284-.175.564-.267.849-.166.538-.328 1.071-.485 1.61-.009.03-.018.065-.027.096-.087.284-.166.573-.249.857-.004.005-.004.009-.004.013-.079.28-.162.565-.241.845-.105.363-.201.726-.301 1.089-.057.206-.114.416-.167.621-.03.114-.061.232-.096.346-.201.739-.393 1.478-.586 2.213-.188.718-.372 1.431-.555 2.135-.079.302-.158.599-.232.901-.241.941-.481 1.873-.717 2.787-.074.267-.14.538-.21.805-.127.485-.258.967-.385 1.439-.079.293-.157.591-.24.879-.289 1.046-.578 2.061-.879 3.045-.066.223-.136.446-.202.665-.048.158-.1.311-.148.468-.04.131-.083.267-.127.394-.14.429-.28.853-.429 1.264-.153.446-.31.88-.472 1.304-.009.022-.017.044-.022.065-.074.193-.149.377-.223.565-.065.162-.131.323-.197.481-.017.039-.035.087-.052.127-.074.184-.158.363-.236.547-.005.013-.013.03-.022.043-.088.193-.175.385-.263.574-.087.188-.174.371-.266.551-.066.135-.132.267-.201.398-.031.061-.062.122-.097.179-.087.158-.17.311-.258.464-.039.074-.083.144-.122.214-.053.092-.109.184-.166.276-7.509 12.223-28.858 11.781-28.858 11.781h-31.36c-7.36 0-7.509-7.512.883-8.102 8.392-.591 24.735-10.311 32.095-31.664 3.568-10.35 7.722-16.514 11.059-20.119 2.834-3.066 6.848-4.772 11.02-4.772h29.978c.499 0 .643.669.197.874z" fill="#f4c8af"/><path d="m965.007 179.875c-.118.066-.236.131-.35.197-.118.066-.232.131-.345.201-.114.066-.228.136-.342.21-.105.066-.205.131-.31.197-.123.079-.241.157-.354.241-.114.074-.223.148-.328.227-.11.079-.219.158-.324.236-.358.267-.713.547-1.058.836-.127.105-.249.21-.372.319-.437.385-.861.788-1.268 1.208l-.013.013c-.166.17-.333.345-.499.525-.022.026-.048.057-.074.083-.162.175-.319.354-.477.538-.175.201-.341.402-.507.608-.009.013-.022.026-.031.039-.153.193-.31.39-.459.587-.157.21-.319.419-.472.629-.009.014-.018.022-.026.035-.149.21-.302.42-.446.635-.153.223-.302.446-.455.673 0 0 0 .005-.005.005-.126.201-.258.402-.384.608-.035.057-.07.114-.105.171-.031.048-.062.1-.092.153h-.005c-.236.385-.463.774-.686 1.172-.271.481-.538.976-.787 1.474-.132.25-.258.499-.381.757-.122.254-.249.508-.367.766-.241.516-.477 1.036-.704 1.566-.114.262-.228.529-.337.796-.114.267-.223.538-.328.805-.096.232-.184.464-.275.7-.118.31-.237.621-.355.936-.1.276-.201.547-.301.827-.014.03-.022.066-.035.096-.088.245-.175.49-.258.735-.197.569-.394 1.142-.582 1.719-.087.267-.171.538-.258.805-.087.285-.175.565-.267.849-.166.538-.328 1.076-.485 1.61-.009.03-.018.065-.026.096-.084.284-.167.573-.25.857-.004.005-.004.009-.004.014-.079.28-.158.56-.241.844-.105.363-.201.726-.301 1.089-.057.21-.114.416-.166.621-.031.114-.062.232-.097.346-.197.739-.393 1.479-.586 2.214-.188.717-.371 1.43-.555 2.134-.079.302-.153.604-.232.902-.24.94-.481 1.872-.717 2.786-.07.271-.14.538-.21.805-.127.486-.258.967-.385 1.439-.079.293-.157.591-.24.88-.289 1.045-.578 2.06-.879 3.044-.066.224-.136.447-.201.665-.049.158-.101.311-.149.468-.04.132-.083.267-.127.394-.14.429-.28.853-.429 1.264-.153.447-.31.88-.472 1.304-.009.022-.017.044-.022.066-.074.192-.148.376-.223.564-.065.162-.131.324-.197.481-.017.04-.035.088-.052.127-.074.184-.157.363-.236.547-.005.013-.013.031-.022.044-.088.192-.175.385-.262.573-.088.188-.175.372-.267.551-.066.136-.131.267-.201.398-.031.061-.062.123-.097.179-.087.158-.17.311-.258.464-.096.166-.192.328-.288.49-7.509 12.223-28.858 11.781-28.858 11.781h-29.375c-2.094-1.636-1.075-4.134 4.496-4.528 8.392-.59 26.523-12.441 33.887-33.798 3.569-10.351 7.723-16.515 11.06-20.119 2.834-3.067 6.844-4.773 11.02-4.773z" fill="#f7dfd3"/><path d="m955.902 189.054c-.236.385-.464.774-.687 1.172-.271.481-.538.976-.787 1.474-.131.25-.258.499-.381.757-.122.254-.249.508-.367.766-.24.516-.477 1.037-.704 1.566-.114.262-.227.529-.337.796-.113.267-.223.538-.328.805-.096.232-.183.464-.275.7-.118.311-.236.621-.354.936-.101.276-.202.547-.302.827-.013.031-.022.066-.035.096-.088.245-.175.49-.258.735-.197.569-.394 1.142-.582 1.719-.087.267-.17.538-.258.805-.087.285-.175.565-.266.849-.167.538-.328 1.076-.486 1.61-.009.03-.017.065-.026.096-.083.284-.166.573-.249.858-.005.004-.005.008-.005.013-.078.28-.157.56-.24.844-.105.363-.201.726-.302 1.089-.057.21-.114.416-.166.621-.031.114-.061.232-.096.346-.197.739-.394 1.479-.586 2.214-.188.717-.372 1.43-.556 2.134-.079.302-.153.604-.232.902-.24.94-.481 1.872-.717 2.786-.07.272-.14.538-.21.805-.127.486-.258.967-.385 1.439-.078.294-.157.591-.24.88-.289 1.045-.577 2.06-.879 3.045-.066.223-.136.446-.201.664-.048.158-.101.311-.149.469-.039.131-.083.266-.127.393-.14.429-.28.853-.428 1.265-.153.446-.311.879-.473 1.303-.008.022-.017.044-.021.066-.075.192-.149.376-.223.564-.066.162-.132.324-.197.481-.018.04-.035.088-.053.127-.074.184-.157.363-.236.547-.004.013-.013.031-.022.044-.087.192-.175.385-.262.573-.088.188-.175.372-.267.551-.065.136-.131.267-.201.398-.031.061-.061.123-.096.18-.088.157-.171.31-.258.463-.04.075-.083.145-.123.215-.052.092-.109.183-.166.275-7.509 12.223-28.858 11.781-28.858 11.781h-10.321c1.085-.065 21.136-1.028 28.286-31.012 4.836-20.25 17.956-21.453 25.692-23.032z" fill="#f4c8af"/><path d="m739.791 242.8v-20.53c0-6.4-5.187-11.588-11.584-11.588h-14.646v97.642h18.774 7.456 23.164v-42.351c0-6.4-5.186-11.589-11.584-11.589-6.394.005-11.58-5.184-11.58-11.584z" fill="#dceceb"/><path d="m736.669 283.529c-4.47-8.531-9.857-14.616-18.621-21.502-8.759-6.885-20.239-6.916-24.922-9.134-4.688-2.222-4.807 3.928-3.35 9.703 1.456 5.775-2.965 32.364 23.658 40.815 26.619 8.457 26.536-13.587 23.235-19.882z" fill="#f2d6c8"/><path d="m719.854 289.264c-.197 0-.367-.145-.394-.346-1.276-9.414 3.39-18.715 3.438-18.807.1-.196.341-.275.538-.175.196.101.275.342.175.538-.049.092-4.597 9.178-3.359 18.335.031.218-.122.42-.341.45-.022.005-.039.005-.057.005z" fill="#f5b89b"/><path d="m719.924 290.318c-.061 0-.126-.013-.183-.044-7.933-4.169-21.721-2.677-21.861-2.66-.219.022-.416-.131-.442-.354-.026-.219.131-.416.354-.442.577-.065 14.173-1.535 22.321 2.747.196.101.271.346.166.539-.075.135-.21.214-.355.214z" fill="#f5b89b"/><path d="m722.413 297.974c-.18 0-.346-.122-.39-.306-5.715-23.619-28.372-40.308-28.6-40.474-.179-.132-.218-.381-.087-.56.131-.18.38-.219.56-.088.231.167 23.12 17.031 28.906 40.934.052.214-.079.429-.293.481-.031.009-.066.013-.096.013z" fill="#f5b89b"/><path d="m711.712 275.82c-.088 0-.175-.03-.249-.087-5.174-4.143-17.677-3.062-17.799-3.049-.223.026-.416-.145-.433-.363-.022-.219.14-.416.363-.434.525-.048 12.944-1.119 18.371 3.22.171.14.202.39.062.56-.079.101-.197.153-.315.153z" fill="#f5b89b"/><path d="m707.562 270.557c-.157 0-.302-.092-.367-.245-1.623-3.858-.766-10.381-.731-10.656.031-.219.223-.372.451-.342.218.031.371.232.341.451-.009.066-.862 6.584.673 10.237.088.201-.008.437-.214.525-.048.017-.101.03-.153.03z" fill="#f5b89b"/><path d="m667.054 308.207c-.761-7.98 6.463-19.992 29.654-12.179 0 0 5.86-18.313 21.97-17.705 16.111.613 21.236 15.684 21.236 15.684s21.643-2.616 24.734 15.696c0 0-96.497 10.031-97.594-1.496z" fill="#adccc7"/><path d="m715.154 309.58-.788-.127c2.091-12.971-5.947-22.28-6.03-22.372l.599-.529c.083.1 8.366 9.69 6.219 23.028z" fill="#6eab9c"/><path d="m715.42 301.635-.612-.516c.074-.087 7.421-8.876 8.672-14.392l.778.175c-1.294 5.708-8.532 14.37-8.838 14.733z" fill="#6eab9c"/><path d="m715.079 306.25c-5.737-.31-10.823-6.229-11.033-6.483l.608-.516c.048.061 5.077 5.91 10.469 6.203z" fill="#6eab9c"/><path d="m733.183 310.005-.52-.604c.416-.358 10.22-8.784 15.319-8.928l.022.8c-4.819.131-14.724 8.644-14.821 8.732z" fill="#6eab9c"/><path d="m752.36 308.355c-.079-.004-7.894-.481-14.217-2.113l.201-.774c6.249 1.614 13.989 2.082 14.064 2.091z" fill="#6eab9c"/><path d="m694.119 309.524c-5.165-4.296-16.054-7.726-16.163-7.761l.236-.761c.455.14 11.151 3.513 16.438 7.909z" fill="#6eab9c"/><path d="m690.1 306.203-.801-.022c.127-4.357-1.771-7.783-1.788-7.818l.695-.393c.088.148 2.029 3.644 1.894 8.233z" fill="#6eab9c"/><path d="m876.565 308.364h-7.587s6.118-3.067 8.12-9.353c1.444-4.532 3.805-8.881 6.739-7.804 2.935 1.076.516 6.067-1.04 8.88-2.226 4.012-6.232 8.277-6.232 8.277z" fill="#408c91"/><path d="m729.23 210.683h-1.198v-48.529c0-4.125 3.354-7.48 7.478-7.48h4.946v1.198h-4.946c-3.463 0-6.28 2.818-6.28 6.282z" fill="#3fb8a9"/><path d="m734.067 211.185h-1.198v-48.528c0-1.924 1.565-3.486 3.485-3.486h8.698v1.199h-8.698c-1.264 0-2.287 1.028-2.287 2.287z" fill="#3fb8a9"/><path d="m901.934 216.071c.179.486.275.971.301 1.448-7.128-4.904-13.263-11.177-13.263-11.177 8.986-6.374 7.788-26.471 7.788-26.471s10.141-8.859 11.541-6.715c1.399 2.143-3.595 14.427 0 19.471 3.59 5.044-9.332 15.277-6.367 23.444z" fill="#4f91b3"/><path d="m919.933 137.682c-.839-2.494-2.077-3.876-2.077-3.876s1.819-2.253 2.082-5.057c0 0 2.422 5.595-.005 8.933z" fill="#de6667"/><path d="m819.211 74.558c4.224-3.6614 4.68-10.0545 1.02-14.2794s-10.051-4.6818-14.274-1.0204c-4.224 3.6614-4.68 10.0545-1.02 14.2794s10.051 4.6818 14.274 1.0204z" fill="#fff"/><path d="m877.611 57.0352h-44.943v2.9047h44.943z" fill="#fff"/><path d="m877.61 65.6182h-44.943v2.9047h44.943z" fill="#fff"/><path d="m857.537 74.1221h-24.87v2.9048h24.87z" fill="#fff"/><path d="m733.905 238.482c0 1.05-.853 1.903-1.902 1.903-1.05 0-1.902-.853-1.902-1.903s.852-1.903 1.902-1.903c1.054 0 1.902.853 1.902 1.903z" fill="#b6d5d0"/><path d="m732.007 231.435c1.051 0 1.903-.852 1.903-1.903s-.852-1.903-1.903-1.903c-1.05 0-1.902.852-1.902 1.903s.852 1.903 1.902 1.903z" fill="#b6d5d0"/><path d="m732.007 222.485c1.051 0 1.903-.852 1.903-1.903s-.852-1.903-1.903-1.903c-1.05 0-1.902.852-1.902 1.903s.852 1.903 1.902 1.903z" fill="#b6d5d0"/><path d="m919.938 141.335s.275-1.654 1.749-2.673c1.473-1.02 10.924-5.171 13.486-.652z" fill="#93405e"/></svg>